# xmcd
#
# Track frame offsets: 
#        150
#        17140
#        28117
#        46755
#        58800
#        76850
#        92567
#        107765
#        123100
#        131875
#        144310
#        151192
#        165740
#        182190
#        199307
#        216230
#        233682
#
# Disc length: 3379 seconds
#
# Revision: 1
# Processed by: cddbd v1.5.2PL0 Copyright (c) Steve Scherf et al.
# Submitted via: ExactAudioCopy v0.99pb5
#
DISCID=e30d3111
DTITLE=The Goods - Gone So Long
DYEAR=1996
DGENRE=Country
TTITLE0=Gone So Long
TTITLE1=Old Kentucky
TTITLE2=Up Against The Wall Redneck Mother
TTITLE3=Where There's A Will (There's A Way)
TTITLE4=Missing You
TTITLE5=I Saw The Light
TTITLE6=Mom's Song
TTITLE7=Don't Know Much About Love
TTITLE8=Chase My Charlie
TTITLE9=Black Jack Davey
TTITLE10=The Irish Washerwoman
TTITLE11=The Battle Of New Orleans
TTITLE12=Fast and Loose
TTITLE13=The Night They Drove Old Dixie Town
TTITLE14=Honk On Bobo
TTITLE15=Alberta Bound
TTITLE16=I'll Be Seeing You Around
EXTD=YEAR: 1996
EXTT0=
EXTT1=
EXTT2=
EXTT3=
EXTT4=
EXTT5=
EXTT6=
EXTT7=
EXTT8=
EXTT9=
EXTT10=
EXTT11=
EXTT12=
EXTT13=
EXTT14=
EXTT15=
EXTT16=
PLAYORDER=
